Coordinates
version=1
nRows=13
nColumns=63
inDegrees=yes

Units are S.I. units (second, meters, Newtons, ...)
If the header above contains a line with 'inDegrees', this indicates whether rotational values are in degrees (yes) or radians (no).

endheader
time	pelvis_tilt	pelvis_list	pelvis_rotation	pelvis_tx	pelvis_ty	pelvis_tz	hip_flexion_r	hip_adduction_r	hip_rotation_r	knee_angle_r	knee_angle_r_beta	ankle_angle_r	subtalar_angle_r	mtp_angle_r	hip_flexion_l	hip_adduction_l	hip_rotation_l	knee_angle_l	knee_angle_l_beta	ankle_angle_l	subtalar_angle_l	mtp_angle_l	L5_S1_Flex_Ext	L5_S1_Lat_Bending	L5_S1_axial_rotation	L4_L5_Flex_Ext	L4_L5_Lat_Bending	L4_L5_axial_rotation	L3_L4_Flex_Ext	L3_L4_Lat_Bending	L3_L4_axial_rotation	L2_L3_Flex_Ext	L2_L3_Lat_Bending	L2_L3_axial_rotation	L1_L2_Flex_Ext	L1_L2_Lat_Bending	L1_L2_axial_rotation	L1_T12_Flex_Ext	L1_T12_Lat_Bending	L1_T12_axial_rotation	Abs_r3	Abs_r2	Abs_r1	Abs_t1	Abs_t2	neck_flexion	neck_bending	neck_rotation	arm_flex_r	arm_add_r	arm_rot_r	elbow_flex_r	pro_sup_r	wrist_flex_r	wrist_dev_r	arm_flex_l	arm_add_l	arm_rot_l	elbow_flex_l	pro_sup_l	wrist_flex_l	wrist_dev_l
0.000000	5.864629	-3.113964	97.178376	0.290924	0.649527	0.897284	9.853727	7.192341	-18.045002	0.615998	0.010751	1.095853	-11.537909	0.000000	11.413473	-8.438285	2.651900	12.361802	0.215754	21.366135	-1.657475	0.000000	0.185954	0.595468	-1.635378	0.345334	0.791972	-1.737589	0.305503	1.447821	-1.737589	0.212526	1.447821	-1.430956	0.172676	1.214278	-1.328745	0.106254	0.922380	-1.226533	1.328248	6.736052	-9.095481	0.000000	0.000000	27.318461	6.273900	13.670889	20.550086	-5.083010	89.192729	40.183609	89.364271	-11.273090	-3.252014	5.938379	-7.785394	41.773932	49.062346	77.369438	-6.675541	4.230991
0.016949	5.757812	-3.143906	97.236538	0.290542	0.649910	0.896993	9.878535	7.066689	-16.953708	0.591874	0.010330	3.650349	-10.830910	0.000000	10.920262	-8.262207	2.958980	11.555338	0.201679	20.608793	-2.395413	0.000000	0.190277	0.585597	-1.715324	0.353363	0.778844	-1.822532	0.312606	1.423820	-1.822532	0.217467	1.423820	-1.500908	0.176691	1.194149	-1.393701	0.108724	0.907089	-1.286493	1.359129	6.624388	-9.540117	0.000000	0.000000	27.324889	6.477929	13.997917	21.177094	-4.638882	91.275706	39.450761	89.406028	-14.897597	-5.631725	5.318590	-8.005121	41.030108	49.888216	73.927427	-5.945892	4.840177
0.033898	5.683263	-3.167216	97.278987	0.290219	0.650246	0.896754	9.900771	6.976582	-16.110908	0.573682	0.010013	5.645276	-10.260042	0.000000	10.490732	-8.135074	3.160175	10.840566	0.189204	20.029392	-2.856773	0.000000	0.193655	0.579134	-1.775716	0.359637	0.770248	-1.886699	0.318156	1.408106	-1.886699	0.221328	1.408106	-1.553752	0.179828	1.180969	-1.442770	0.110655	0.897078	-1.331787	1.383259	6.551276	-9.876002	0.000000	0.000000	27.331891	6.627903	14.237861	21.629699	-4.333701	92.794846	38.943670	89.439556	-17.652225	-7.376779	4.826851	-8.174882	40.428061	50.548404	71.177886	-5.359909	5.275340
0.050847	5.637912	-3.184957	97.307179	0.289951	0.650538	0.896562	9.921080	6.918634	-15.493591	0.560830	0.009788	7.134600	-9.810045	0.000000	10.121170	-8.052304	3.264571	10.212293	0.178238	19.611198	-3.072033	0.000000	0.196215	0.575755	-1.818628	0.364391	0.765755	-1.932292	0.322362	1.399891	-1.932292	0.224254	1.399891	-1.591299	0.182205	1.174080	-1.477635	0.112117	0.891845	-1.363971	1.401545	6.513059	-10.114662	0.000000	0.000000	27.339526	6.729861	14.401070	21.924961	-4.152903	93.804613	38.639630	89.465542	-19.617572	-8.549543	4.451105	-8.299122	39.953088	51.057420	69.064093	-4.902827	5.557537
0.067797	5.618689	-3.198191	97.322569	0.289734	0.650788	0.896412	9.940104	6.889455	-15.078743	0.552724	0.009647	8.172290	-9.465661	0.000000	9.807861	-8.009314	3.281255	9.665325	0.168692	19.337477	-3.071669	0.000000	0.198084	0.575139	-1.846130	0.367861	0.764934	-1.961514	0.325432	1.398392	-1.961514	0.226390	1.398392	-1.615364	0.183940	1.172822	-1.499981	0.113185	0.890890	-1.384598	1.414891	6.506082	-10.267624	0.000000	0.000000	27.347852	6.789841	14.497893	22.079935	-4.081925	94.359471	38.515937	89.484674	-20.874235	-9.212385	4.179298	-8.382284	39.590486	51.429776	67.529323	-4.559881	5.707823
0.084746	5.622526	-3.207979	97.326611	0.289562	0.650999	0.896299	9.958487	6.885659	-14.843354	0.548772	0.009578	8.812311	-9.211631	0.000000	9.547089	-8.001520	3.219312	9.194469	0.160474	19.191494	-2.886160	0.000000	0.199387	0.576960	-1.860297	0.370283	0.767357	-1.976565	0.327574	1.402821	-1.976565	0.227880	1.402821	-1.627760	0.185151	1.176537	-1.511491	0.113930	0.893711	-1.395223	1.424205	6.526689	-10.346413	0.000000	0.000000	27.356930	6.813879	14.538678	22.111679	-4.106205	94.513886	38.549886	89.497641	-21.502813	-9.427672	3.999375	-8.428815	39.325553	51.679982	66.516852	-4.316306	5.747254
0.101695	5.646351	-3.215384	97.320763	0.289431	0.651173	0.896220	9.976874	6.903857	-14.764411	0.548379	0.009571	9.108633	-9.032696	0.000000	9.335139	-8.024341	3.087828	8.794534	0.153494	19.156516	-2.545982	0.000000	0.200254	0.580897	-1.863200	0.371891	0.772593	-1.979650	0.328997	1.412393	-1.979650	0.228870	1.412393	-1.630300	0.185955	1.184565	-1.513850	0.114425	0.899809	-1.397400	1.430391	6.571223	-10.362557	0.000000	0.000000	27.366818	6.808016	14.533774	22.037252	-4.211180	94.322320	38.718770	89.505131	-21.583902	-9.257774	3.899282	-8.443158	39.143585	51.822548	65.969957	-4.157337	5.696886
0.118644	5.687097	-3.221467	97.306477	0.289337	0.651312	0.896169	9.995907	6.940663	-14.818902	0.550953	0.009616	9.115220	-8.913598	0.000000	9.168297	-8.073193	2.895889	8.460324	0.147661	19.215808	-2.081613	0.000000	0.200809	0.586626	-1.856911	0.372922	0.780212	-1.972968	0.329909	1.426322	-1.972968	0.229504	1.426322	-1.624797	0.186471	1.196247	-1.508740	0.114742	0.908683	-1.392683	1.434356	6.636028	-10.327582	0.000000	0.000000	27.377575	6.778287	14.493529	21.873709	-4.382287	93.839238	38.999884	89.507832	-21.198102	-8.765057	3.866964	-8.429759	39.029879	51.871987	65.831913	-4.068210	5.577776
0.135593	5.741692	-3.227290	97.285211	0.289275	0.651418	0.896142	10.016231	6.992687	-14.983816	0.555902	0.009702	8.886042	-8.839076	0.000000	9.042847	-8.143493	2.652580	8.186649	0.142884	19.352636	-1.523530	0.000000	0.201180	0.593823	-1.843504	0.373611	0.789785	-1.958723	0.330518	1.443822	-1.958723	0.229928	1.443822	-1.613066	0.186815	1.210925	-1.497847	0.114954	0.919833	-1.382628	1.437006	6.717450	-10.253014	0.000000	0.000000	27.389261	6.730732	14.428293	21.638110	-4.604963	93.119104	39.370523	89.506431	-20.426009	-8.011888	3.890365	-8.393061	38.969734	51.842808	66.045998	-4.034158	5.410978
0.152542	5.807068	-3.233914	97.258419	0.289241	0.651495	0.896133	10.038490	7.056543	-15.236140	0.562630	0.009820	8.475066	-8.793873	0.000000	8.955076	-8.230658	2.366988	7.968313	0.139073	19.550266	-0.902210	0.000000	0.201493	0.602167	-1.825050	0.374193	0.800882	-1.939115	0.331033	1.464108	-1.939115	0.230287	1.464108	-1.596919	0.187107	1.227938	-1.482853	0.115133	0.932756	-1.368787	1.439247	6.811831	-10.150379	0.000000	0.000000	27.401934	6.671387	14.348414	21.347511	-4.864646	92.216382	39.807982	89.501617	-19.348221	-7.060637	3.957432	-8.337510	38.948445	51.749523	66.555487	-4.040418	5.217549
0.169492	5.880155	-3.242402	97.227557	0.289229	0.651545	0.896139	10.063327	7.128843	-15.552864	0.570547	0.009958	7.936257	-8.762730	0.000000	8.901267	-8.330105	2.048197	7.800125	0.136138	19.791965	-0.248130	0.000000	0.201877	0.611332	-1.803622	0.374905	0.813072	-1.916348	0.331663	1.486394	-1.916348	0.230725	1.486394	-1.578169	0.187463	1.246629	-1.465443	0.115352	0.946954	-1.352717	1.441984	6.915515	-10.031204	0.000000	0.000000	27.415655	6.606292	14.264241	21.018970	-5.146772	91.185537	40.289554	89.494077	-18.045337	-5.973671	4.056108	-8.267551	38.951311	51.606643	67.303657	-4.072225	5.018544
0.186441	5.939810	-3.247640	97.208008	0.289223	0.651597	0.896156	10.080500	7.185537	-15.967355	0.579025	0.010106	7.321582	-8.760196	0.000000	8.874074	-8.413442	1.775984	7.676681	0.133983	20.065313	0.349089	0.000000	0.202126	0.618362	-1.780127	0.375367	0.822421	-1.891385	0.332072	1.503485	-1.891385	0.231009	1.503485	-1.557611	0.187694	1.260963	-1.446353	0.115495	0.957842	-1.335095	1.443762	6.995032	-9.900530	0.000000	0.000000	27.429785	6.545526	14.154388	20.678925	-5.420724	90.139988	40.754722	89.483976	-16.778162	-4.938579	4.178236	-8.188251	38.928810	51.440829	68.298797	-4.035237	4.924632
0.203390	6.002308	-3.259892	97.170400	0.289251	0.651623	0.896145	10.105372	7.249358	-16.284529	0.587356	0.010251	6.800944	-8.686317	0.000000	8.867647	-8.507829	1.405170	7.594706	0.132553	20.322758	0.872533	0.000000	0.202643	0.625912	-1.762210	0.376328	0.832463	-1.872349	0.332922	1.521843	-1.872349	0.231600	1.521843	-1.541934	0.188174	1.276360	-1.431796	0.115790	0.969538	-1.321658	1.447456	7.080443	-9.800886	0.000000	0.000000	27.448205	6.507784	14.102152	20.364057	-5.656546	89.155934	41.187841	89.474440	-15.463326	-3.906182	4.274798	-8.104952	38.837530	51.269128	69.263686	-3.938143	4.942493
